<?xml version="1.0" encoding="UTF-8" standalone="no"?>
<svg
   xmlns:dc="http://purl.org/dc/elements/1.1/"
   xmlns:cc="http://creativecommons.org/ns#"
   xmlns:rdf="http://www.w3.org/1999/02/22-rdf-syntax-ns#"
   xmlns:svg="http://www.w3.org/2000/svg"
   xmlns="http://www.w3.org/2000/svg"
   xmlns:sodipodi="http://sodipodi.sourceforge.net/DTD/sodipodi-0.dtd"
   xmlns:inkscape="http://www.inkscape.org/namespaces/inkscape"
   width="79.920998mm"
   height="16.9mm"
   viewBox="0 0 79.920997 16.9"
   version="1.1"
   id="svg8"
   sodipodi:docname="logo.svg"
   inkscape:version="1.0 (6e3e5246a0, 2020-05-07)">
  <defs
     id="defs2" />
  <sodipodi:namedview
     id="base"
     pagecolor="#ffffff"
     bordercolor="#666666"
     borderopacity="1.0"
     inkscape:pageopacity="0.0"
     inkscape:pageshadow="2"
     inkscape:zoom="2.8"
     inkscape:cx="170.2751"
     inkscape:cy="50.8016"
     inkscape:document-units="mm"
     inkscape:current-layer="g499"
     inkscape:document-rotation="0"
     showgrid="false"
     inkscape:window-width="1920"
     inkscape:window-height="1026"
     inkscape:window-x="0"
     inkscape:window-y="26"
     inkscape:window-maximized="1" />
  <metadata
     id="metadata5">
    <rdf:RDF>
      <cc:Work
         rdf:about="">
        <dc:format>image/svg+xml</dc:format>
        <dc:type
           rdf:resource="http://purl.org/dc/dcmitype/StillImage" />
        <dc:title></dc:title>
      </cc:Work>
    </rdf:RDF>
  </metadata>
  <g
     inkscape:label="Layer 1"
     inkscape:groupmode="layer"
     id="layer1">
    <g
       id="g20"
       transform="matrix(0.0282531,0,0,-0.0282531,-78.93874,263.23589)">
      <g
         id="g499"
         transform="matrix(0.30512892,0,0,0.30512892,-347.73511,6527.3689)">
        <g
           id="g488">
          <path
             id="path98-3"
             style="fill:#80cc28;fill-opacity:1;fill-rule:nonzero;stroke:none;stroke-width:0.999997"
             d="m 10695.952,8378.7567 v -757.67 c 0,-237 192.12,-429.12 429.12,-429.12 h 406.77 c 237,0 429.12,192.12 429.12,429.12 v 757.67 l -632.5,444.22 -632.51,-444.22" />
          <path
             id="path100-6"
             style="fill:#27963c;fill-opacity:1;fill-rule:nonzero;stroke:none;stroke-width:0.999997"
             d="m 12305.792,8474.5267 -344.83,242.18 -293.77,206.32 -280.68,197.13 c -34.84,24.46 -81.27,24.46 -116.1,0 l -280.69,-197.13 -293.77,-206.32 -344.83,-242.18 c -45.65,-32.06 -56.67,-95.05 -24.61,-140.7001 32.06,-45.6499 95.06,-56.67 140.71,-24.6099 l 228.73,160.64 632.51,444.22 632.5,-444.22 228.73,-160.64 c 17.66,-12.4 37.91,-18.3501 57.97,-18.3501 31.78,0 63.08,14.97 82.74,42.96 32.06,45.6501 21.04,108.6401 -24.61,140.7001" />
          <g
             id="g480"
             transform="matrix(1.2782682,0,0,1.2452481,-3143.5615,-2049.3647)">
            <path
               d="m 11704.382,7976.3167 -41.14,71.26 -182.36,-105.46 26.71,-46.26 c 0.05,-0.09 0.15,-0.15 0.26,-0.15 108.58,1.93 179.99,35.4 192.36,41.63 0.31,0.15 0.59,-0.2603 0.34,-0.4898 -68.93,-63.42 -182.96,-58.32 -182.96,-58.32 h -138.68 c -0.16,0 -0.29,0.1297 -0.29,0.2902 v 18.6101 c 0,0.2497 -0.3,0.39 -0.49,0.2197 l -108.85,-120.68 c -0.13,-0.12 -0.13,-0.33 0,-0.45 l 108.85,-120.69 c 0.19,-0.1702 0.49,-0.03 0.49,0.2198 v 16.39 c 0,0.1703 0.129,0.3 0.29,0.3 h 150.19 c 25.24,0 48.56,13.46 61.18,35.32 l 114.1,197.62 c 12.62,21.85 12.62,48.78 0,70.64"
               style="fill:#ffffff;fill-opacity:1;fill-rule:nonzero;stroke:none;stroke-width:0.999997"
               id="path102-7" />
            <path
               d="m 11318.292,8188.5366 c 0.05,0.09 0.05,0.2003 0,0.2903 -53.49,94.93 -117.16,141.93 -128.55,149.85 -0.28,0.2002 -0.06,0.6397 0.26,0.5302 88.31,-30.28 138.11,-132.38 138.45,-133.07 v -0.01 l 87.85,-152.25 c 0.08,-0.1402 0.04,-0.3202 -0.1,-0.3997 l -12.85,-7.43 c -0.22,-0.1297 -0.19,-0.4597 0.05,-0.54 l 162.18,-35.14 c 0.17,-0.052 0.35,0.052 0.39,0.2302 l 46.77,155.98 c 0.05,0.2498 -0.22,0.4403 -0.44,0.3098 l -13.24,-7.6601 c -0.14,-0.08 -0.32,-0.03 -0.4,0.1103 l -94.94,164.5199 c -12.62,21.8601 -35.94,35.3301 -61.19,35.3301 h -228.18 c -25.23,0 -48.56,-13.4601 -61.18,-35.3201 l -41.42,-71.74 182.43,-105.35 24.11,41.76"
               style="fill:#ffffff;fill-opacity:1;fill-rule:nonzero;stroke:none;stroke-width:0.999997"
               id="path104-5" />
            <path
               d="m 11165.941,7880.6454 c -54.32,-94.29 -62.31,-172.92 -63.33,-186.75 -0.02,-0.34 -0.52,-0.3801 -0.58,-0.04 -19,91.72 43.97,186.92 43.97,186.92 l 0.02,0.02 h -0.06 l 90.78,156.9795 c 0.08,0.14 0.27,0.1899 0.41,0.11 l 11.86,-6.85 c 0.22,-0.13 0.49,0.06 0.44,0.31 l -48.57,155.69 -160.84,-34.76 c -0.24,-0.08 -0.27,-0.4 -0.05,-0.53 l 14.23,-8.22 c 0.14,-0.08 0.18,-0.26 0.1,-0.4 l -95.11,-164.53 c -12.64,-21.86 -12.65,-48.81 -0.02,-70.68 l 114.08,-197.59 c 12.62,-21.86 35.94,-35.32 61.18,-35.32 h 125.13 v 205.79 h -93.38 c -0.11,0 -0.21,-0.06 -0.26,-0.15"
               style="fill:#ffffff;fill-opacity:1;fill-rule:nonzero;stroke:none;stroke-width:0.999997"
               id="path106-3" />
          </g>
        </g>
        <text
           transform="scale(0.97853647,-1.0219343)"
           id="text452"
           y="-7200.7852"
           x="12401.435"
           style="font-style:normal;font-weight:normal;font-size:1036.18px;line-height:1.25;font-family:sans-serif;letter-spacing:0px;word-spacing:0px;fill:#4b0082;fill-opacity:1;stroke:none;stroke-width:25.9045"
           xml:space="preserve"><tspan
             style="font-style:normal;font-variant:normal;font-weight:bold;font-stretch:normal;font-family:Ubuntu;-inkscape-font-specification:'Ubuntu Bold';fill:#4b0082;stroke-width:25.9045"
             y="-7200.7852"
             x="12401.435"
             id="tspan450"
             sodipodi:role="line">Coleta Seletiva</tspan></text>
      </g>
    </g>
  </g>
</svg>
